<svg width="501" height="232" viewBox="0 0 501 232" fill="none" xmlns="http://www.w3.org/2000/svg">
<rect x="179" y="76" width="233" height="18" fill="black"/>
<rect x="155.239" y="136.138" width="31.189" height="18" transform="rotate(90.4408 155.239 136.138)" fill="black"/>
<rect x="369.298" y="113.138" width="38.8216" height="18" transform="rotate(90.4408 369.298 113.138)" fill="black"/>
<rect y="103" width="233" height="18" fill="black"/>
<path d="M128.222 15.4166C110.427 21.8158 94.5561 32.7505 82.1377 47.1682C69.7192 61.586 61.1712 79.0013 57.3165 97.7378C53.4618 116.474 54.4302 135.901 60.1285 154.148C65.8267 172.396 76.0629 188.849 89.8519 201.924C103.641 215 120.518 224.257 138.859 228.806C157.201 233.354 176.388 233.04 194.575 227.894C212.762 222.749 229.336 212.944 242.701 199.424C256.067 185.904 265.774 169.125 270.888 150.701L239.45 141.734C235.854 154.688 229.029 166.486 219.631 175.991C210.234 185.497 198.581 192.391 185.794 196.009C173.007 199.627 159.516 199.848 146.621 196.65C133.725 193.452 121.858 186.943 112.164 177.749C102.469 168.556 95.2715 156.988 91.265 144.158C87.2586 131.329 86.5778 117.67 89.288 104.496C91.9982 91.3223 98.0083 79.0777 106.74 68.9406C115.471 58.8035 126.63 51.1153 139.142 46.6161L128.222 15.4166Z" fill="black"/>
<path d="M354.222 6.41661C336.427 12.8158 320.556 23.7505 308.138 38.1682C295.719 52.586 287.171 70.0013 283.317 88.7378C279.462 107.474 280.43 126.901 286.128 145.148C291.827 163.396 302.063 179.849 315.852 192.924C329.641 206 346.518 215.257 364.859 219.806C383.201 224.354 402.388 224.04 420.575 218.894C438.762 213.749 455.336 203.944 468.701 190.424C482.067 176.904 491.774 160.125 496.888 141.701L465.45 132.734C461.854 145.688 455.029 157.486 445.631 166.991C436.234 176.497 424.581 183.391 411.794 187.009C399.007 190.627 385.516 190.848 372.621 187.65C359.725 184.452 347.858 177.943 338.164 168.749C328.469 159.556 321.271 147.988 317.265 135.158C313.259 122.329 312.578 108.67 315.288 95.4959C317.998 82.3223 324.008 70.0777 332.74 59.9406C341.471 49.8035 352.63 42.1153 365.142 37.6161L354.222 6.41661Z" fill="black"/>
</svg>
